<svg width="14" height="15" viewBox="0 0 14 15" fill="none" xmlns="http://www.w3.org/2000/svg">
<path d="M6.16 7.20833V1.375C6.16 1.14294 6.2485 0.920376 6.40603 0.756281C6.56356 0.592187 6.77722 0.5 7 0.5C7.22278 0.5 7.43644 0.592187 7.59397 0.756281C7.7515 0.920376 7.84 1.14294 7.84 1.375V7.20833C7.84 7.4404 7.7515 7.66296 7.59397 7.82705C7.43644 7.99115 7.22278 8.08333 7 8.08333C6.77722 8.08333 6.56356 7.99115 6.40603 7.82705C6.2485 7.66296 6.16 7.4404 6.16 7.20833ZM10.8185 1.22917C10.632 1.10953 10.408 1.07053 10.1942 1.12046C9.9805 1.1704 9.79395 1.30533 9.67434 1.49649C9.55474 1.68765 9.51155 1.91991 9.55399 2.14376C9.59642 2.36761 9.72112 2.56534 9.9015 2.69479C11.4387 3.73531 12.32 5.38542 12.32 7.20833C12.32 8.67807 11.7595 10.0876 10.7618 11.1269C9.76411 12.1661 8.41095 12.75 7 12.75C5.58905 12.75 4.23589 12.1661 3.23819 11.1269C2.2405 10.0876 1.68 8.67807 1.68 7.20833C1.68 5.38542 2.5613 3.73531 4.0985 2.69115C4.26928 2.55782 4.38494 2.36178 4.42198 2.14284C4.45902 1.9239 4.41467 1.69848 4.29794 1.51237C4.1812 1.32626 4.00084 1.19342 3.79348 1.14081C3.58612 1.08821 3.36731 1.1198 3.1815 1.22917C1.1592 2.59854 0 4.77948 0 7.20833C0 9.1422 0.737498 10.9969 2.05025 12.3643C3.36301 13.7318 5.14348 14.5 7 14.5C8.85652 14.5 10.637 13.7318 11.9497 12.3643C13.2625 10.9969 14 9.1422 14 7.20833C14 4.77948 12.8408 2.59854 10.8185 1.22917Z" fill="#FF0000"/>
</svg>
